<svg xmlns="http://www.w3.org/2000/svg" viewBox="0 0 281 94">
<!--    <g fill="none" fill-rule="nonzero">-->
<!--        <path fill="#000" d="M66 1H49.8474L33 40.7646 16.1526 1H0l25.6184 59h14.85zM121 46.0721H91.7248V0H77v59h44z"/>-->
<!--        <path fill="#65BFE7" d="M186 1h-14.771v31.5971c0 8.9784-5.0394 14.7626-12.7724 14.7626s-12.6857-5.7842-12.6857-14.7626V1H131v31.3381C131 50.554 141.6003 61 158.4566 61 175.3996 61 186 50.554 186 32.3381V1ZM216 0h-15v59h15zM281 13.1015V0h-52v13.1015h18.7442V59h14.5116V13.1015z"/>-->
<!--        <g fill="#000">-->
<!--            <path d="M16 69.0618H9.7655V86H7.2211V69.0618H1V67h15zM22.741 86h-2.6763V71.8839h2.6763V86ZM23 69.8356h-2.2878L17 66h3.2086L23 69.8356ZM31.3072 71.2722l.0659 1.6334c.4922-.5989 1.0877-1.0662 1.7864-1.402.6988-.3357 1.514-.5036 2.4456-.5036.923 0 1.7381.1883 2.4457.5649.7075.3766 1.2502.9777 1.6282 1.8035.4746-.7078 1.092-1.2795 1.8523-1.715.7603-.4356 1.659-.6534 2.6961-.6534.7647 0 1.4415.102 2.0303.3063.589.2041 1.0877.524 1.4964.9596.4087.4356.7185.989.9295 1.6606.211.6715.3164 1.47.3164 2.3956V86h-2.439v-9.6915c0-.617-.0725-1.1297-.2176-1.538-.145-.4084-.3493-.7351-.613-.9801s-.5845-.4152-.9624-.5105c-.378-.0952-.7955-.1429-1.2525-.1429-.501 0-.9449.0817-1.3316.245-.3867.1634-.7185.3834-.9954.6602-.2768.2768-.4966.6034-.6592.98-.1626.3766-.2658.7782-.3098 1.2047V86h-2.4522v-9.6779c0-.5716-.0725-1.0594-.2175-1.4632-.145-.4038-.3494-.7328-.613-.9868-.2638-.2541-.5824-.4402-.956-.5581-.3735-.118-.7931-.177-1.259-.177-.8701 0-1.5689.1951-2.0962.5853-.5274.3902-.9229.8984-1.1866 1.5245V86H29V71.2722h2.3072ZM69.4796 82.6724 75.1417 67H78l-7.3499 19h-2.3138L61 67h2.8447zM84.7397 86h-2.5342V71.3388h2.5342V86ZM82 67.4499c0-.4065.1256-.7498.3767-1.0298C82.628 66.14 83 66 83.4932 66c.4931 0 .8675.14 1.1232.42.2557.28.3836.6234.3836 1.0299 0 .4065-.1279.7452-.3836 1.0162s-.6301.4065-1.1232.4065c-.4932 0-.8653-.1355-1.1165-.4065-.2511-.271-.3767-.6097-.3767-1.0162ZM96.4837 86.6257c-.9848 0-1.8759-.1724-2.6732-.517-.7974-.3446-1.4793-.824-2.0458-1.4382-.5664-.6142-1.0022-1.3455-1.3072-2.1938-.305-.8484-.4575-1.7763-.4575-2.7837v-.5567c0-1.1665.1721-2.2093.5163-3.1283.3443-.9191.804-1.6923 1.3791-2.3198.5752-.6274 1.2331-1.1068 1.9739-1.4382.7407-.3314 1.512-.497 2.3137-.497 1.0109 0 1.8824.1789 2.6144.5368.732.3579 1.3355.8505 1.8104 1.478.475.6274.8258 1.3697 1.0523 2.2269.2266.8572.3399 1.7895.3399 2.797v1.1001h-9.5817c.0174.6628.1242 1.2814.3203 1.8558.196.5744.475 1.0737.8366 1.4979.3616.4242.7973.76 1.3072 1.0074.5098.2475 1.0871.3712 1.732.3712.854 0 1.5773-.1768 2.17-.5303.5925-.3534 1.111-.8218 1.5555-1.405l1.477 1.1664c-.2265.3535-.501.696-.8234 1.0274-.3225.3313-.6994.6274-1.1308.888-.4313.2608-.9259.4684-1.4836.623-.5577.1547-1.1896.232-1.8954.232Zm-.3007-12.858c-.488 0-.9368.0906-1.3464.2718-.4096.1812-.7756.444-1.098.7887-.3225.3447-.5905.7732-.804 1.2858-.2135.5125-.3594 1.1002-.4379 1.763h7.085v-.1856a6.875 6.875 0 0 0-.2288-1.4183c-.1263-.4684-.3224-.8882-.5882-1.2593-.2658-.3712-.6078-.6716-1.0261-.9014s-.9369-.3446-1.5556-.3446Zm3.9477-4.1357v.1326h-2L96.17 67.511l-1.9477 2.2535h-2v-.159L95.438 66h1.464l3.2288 3.632Zm-5.4379 19.9762c0-.3977.1198-.7335.3595-1.0075.2396-.274.5948-.4109 1.0653-.4109.4706 0 .828.137 1.072.411.244.2739.366.6097.366 1.0074 0 .3976-.122.729-.366.9941S96.5881 91 96.1175 91c-.4705 0-.8257-.1326-1.0653-.3977-.2397-.265-.3595-.5965-.3595-.9941ZM112.3421 83.9813c.4298 0 .8421-.0713 1.2368-.214.3948-.1425.7435-.3386 1.0461-.5882a3.0405 3.0405 0 0 0 .7368-.889c.1886-.3431.3005-.7152.3356-1.1163H118c-.035.6417-.2083 1.2545-.5197 1.8382-.3114.5838-.7215 1.0963-1.2303 1.5375-.5088.4411-1.0987.7932-1.7697 1.0561-.671.263-1.3838.3944-2.1382.3944-1.0702 0-2.0022-.1939-2.796-.5816-.794-.3877-1.454-.9113-1.9803-1.5708s-.9189-1.426-1.1776-2.2995c-.2588-.8734-.3882-1.7959-.3882-2.7674v-.5614c0-.9715.1294-1.894.3882-2.7674.2587-.8735.6513-1.64 1.1776-2.2995.5263-.6595 1.1842-1.1831 1.9737-1.5708.7894-.3877 1.7193-.5816 2.7894-.5816.8334 0 1.59.1337 2.2698.401.6798.2674 1.2675.6351 1.7631 1.103.4957.468.8838 1.0227 1.1645 1.6644.2807.6418.4386 1.3325.4737 2.0722h-2.3026c-.0351-.4456-.1382-.8623-.3092-1.25-.171-.3877-.4014-.7263-.6908-1.016-.2895-.2897-.6338-.5192-1.033-.6885-.399-.1693-.8442-.254-1.3355-.254-.7543 0-1.3793.1515-1.875.4545-.4956.303-.8947.7019-1.1973 1.1966-.3027.4946-.5154 1.0516-.6382 1.671a9.5678 9.5678 0 0 0-.1842 1.865v.5615c0 .6418.0614 1.2723.1842 1.8918.1228.6194.3334 1.1742.6316 1.6644.2982.4902.6974.8868 1.1974 1.1898.5.303 1.1315.4546 1.8947.4546ZM134.6229 83.9512H144V86h-12V67h2.6229zM156.393 86.7297c-.0895-.1802-.1612-.4076-.215-.6824a11.8698 11.8698 0 0 1-.1343-.8581c-.233.2432-.495.4752-.7861.696-.2912.2207-.6092.4143-.9541.581-.345.1667-.719.2973-1.122.392-.4032.0945-.8288.1418-1.2767.1418-.7435 0-1.4177-.1126-2.0224-.3378-.6047-.2253-1.1198-.5316-1.5453-.919a4.0475 4.0475 0 0 1-.9877-1.3716c-.233-.527-.3494-1.0923-.3494-1.696 0-.7837.1523-1.4751.4569-2.0742.3046-.5991.7413-1.1014 1.3102-1.5068.5688-.4054 1.2564-.7117 2.0627-.919.8063-.2071 1.7066-.3107 2.701-.3107h2.4726v-1.1487c0-.8739-.2598-1.5698-.7794-2.0878-.5196-.518-1.2856-.777-2.298-.777-.4658 0-.8913.063-1.2765.1891-.3852.1262-.7144.295-.9877.5068-.2732.2117-.486.4572-.6383.7365-.1523.2793-.2284.572-.2284.8784h-2.4995c0-.5226.1367-1.0406.4099-1.554.2732-.5136.6607-.9753 1.1624-1.3852.5016-.41 1.1086-.7433 1.8208-1 .7122-.2568 1.5073-.3852 2.3852-.3852.7884 0 1.5162.1014 2.1837.304.6674.2028 1.2385.5091 1.7133.919.4748.41.8466.9212 1.1153 1.5338.2688.6126.4032 1.3288.4032 2.1486v6.7973c0 .4955.0425 1.0158.1276 1.5609.0851.545.2128 1.0157.383 1.4121v.2162h-2.607Zm-4.1254-1.9054c.448 0 .869-.063 1.2632-.1892.3942-.126.7525-.2905 1.075-.4932.3225-.2027.6025-.4347.8399-.696.2374-.2612.4233-.5315.5577-.8108v-3h-2.0695c-1.4244 0-2.5218.223-3.2922.669-.7705.4459-1.1557 1.1193-1.1557 2.0202 0 .3514.0582.6802.1747.9865.1165.3063.2934.5698.5308.7906.2374.2207.5285.3963.8735.527.3449.1306.7458.196 1.2026.196Zm2.4995-14.8513h-2.1366L149.1635 66h2.9966l2.607 3.973ZM166.3072 71.2722l.066 1.6334c.4921-.5989 1.0876-1.0662 1.7863-1.402.6988-.3357 1.514-.5036 2.4456-.5036.923 0 1.7381.1883 2.4457.5649.7075.3766 1.2502.9777 1.6282 1.8035.4746-.7078 1.092-1.2795 1.8523-1.715.7603-.4356 1.659-.6534 2.6961-.6534.7647 0 1.4415.102 2.0303.3063.589.2041 1.0877.524 1.4964.9596.4087.4356.7185.989.9295 1.6606.211.6715.3164 1.47.3164 2.3956V86h-2.439v-9.6915c0-.617-.0725-1.1297-.2176-1.538-.145-.4084-.3493-.7351-.613-.9801s-.5845-.4152-.9624-.5105c-.378-.0952-.7955-.1429-1.2525-.1429-.501 0-.9449.0817-1.3316.245-.3867.1634-.7185.3834-.9954.6602-.2768.2768-.4966.6034-.6592.98-.1626.3766-.2658.7782-.3098 1.2047V86h-2.4522v-9.6779c0-.5716-.0725-1.0594-.2175-1.4632-.145-.4038-.3494-.7328-.613-.9868-.2638-.2541-.5824-.4402-.956-.5581-.3735-.118-.7931-.177-1.259-.177-.8701 0-1.5689.1951-2.0962.5853-.5274.3902-.9229.8984-1.1866 1.5245V86H164V71.2722h2.3072ZM214 86h-2.5871l-9.8258-14.6415V86H199V67h2.5871l9.8526 14.7067V67H214zM222.3913 73.6172c.4998-.6163 1.0987-1.0981 1.7967-1.4453.698-.3472 1.4779-.5209 2.3396-.5209.6808 0 1.297.0934 1.8484.28.5515.1866 1.0212.4861 1.409.8984.3877.4124.6872.9419.8983 1.5886.2111.6467.3167 1.43.3167 2.3502V86h-2.3913v-9.2578c0-.5469-.0603-1.0135-.181-1.3998-.1206-.3862-.2994-.701-.5364-.944s-.53-.421-.879-.5338c-.349-.1129-.7518-.1693-1.2085-.1693-.7756 0-1.4564.2083-2.0423.625-.586.4167-1.0427.9636-1.3702 1.6406V86H220V66h2.3913v7.6172ZM245.393 85.7326c-.0895-.1782-.1612-.4033-.215-.6751a11.6264 11.6264 0 0 1-.1343-.849c-.233.2407-.495.4702-.7861.6886-.2912.2183-.6092.41-.9541.5748-.345.165-.719.2941-1.122.3877-.4032.0936-.8288.1404-1.2767.1404-.7435 0-1.4177-.1114-2.0224-.3342-.6047-.2228-1.1198-.5259-1.5453-.9091a4.0058 4.0058 0 0 1-.9877-1.357c-.233-.5214-.3494-1.0806-.3494-1.6778 0-.7754.1523-1.4594.4569-2.0521.3046-.5927.7413-1.0896 1.3102-1.4907.5688-.401 1.2564-.704 2.0627-.909.8063-.205 1.7066-.3075 2.701-.3075h2.4726v-1.1364c0-.8645-.2598-1.553-.7794-2.0655-.5196-.5125-1.2856-.7687-2.298-.7687-.4658 0-.8913.0624-1.2765.1871-.3852.1248-.7144.292-.9877.5014-.2732.2094-.486.4523-.6383.7286-.1523.2763-.2284.566-.2284.869h-2.4995c0-.517.1367-1.0294.4099-1.5375.2732-.508.6607-.9648 1.1624-1.3703.5016-.4055 1.1086-.7353 1.8208-.9893.7122-.254 1.5073-.381 2.3852-.381.7884 0 1.5162.1003 2.1837.3008.6674.2005 1.2385.5036 1.7133.909.4748.4056.8466.9114 1.1153 1.5175.2688.606.4032 1.3146.4032 2.1256v6.7246c0 .4902.0425 1.005.1276 1.5442.0851.5392.2128 1.0049.383 1.397v.214h-2.607Zm-4.1254-1.885c.448 0 .869-.0624 1.2632-.1872.3942-.1247.7525-.2874 1.075-.488.3225-.2005.6025-.43.8399-.6884.2374-.2585.4233-.5259.5577-.8022V78.714h-2.0695c-1.4244 0-2.5218.2206-3.2922.6618-.7705.4411-1.1557 1.1074-1.1557 1.9986 0 .3476.0582.673.1747.976a2.045 2.045 0 0 0 .5308.782c.2374.2184.5285.3922.8735.5214.3449.1293.7458.1939 1.2026.1939ZM256.262 71.2722l.0776 1.8512c.4998-.6624 1.103-1.182 1.8096-1.5585.7067-.3766 1.4994-.5649 2.3784-.5649.6808 0 1.297.0975 1.8484.2926.5515.1951 1.0212.5082 1.409.9393.3877.431.6872.9845.8983 1.6606.2111.676.3167 1.495.3167 2.4569V86h-2.3913v-9.6779c0-.5716-.0603-1.0594-.181-1.4632-.1206-.4038-.2994-.7328-.5364-.9868-.237-.2541-.53-.4402-.879-.5581-.349-.118-.7518-.177-1.2085-.177-.7756 0-1.4564.2178-2.0423.6534-.586.4356-1.0427 1.0072-1.3702 1.715V86H254V71.2722h2.262ZM272.3913 73.6172c.4998-.6163 1.0987-1.0981 1.7967-1.4453.698-.3472 1.4779-.5209 2.3396-.5209.6808 0 1.297.0934 1.8484.28.5515.1866 1.0212.4861 1.409.8984.3877.4124.6872.9419.8983 1.5886.2111.6467.3167 1.43.3167 2.3502V86h-2.3913v-9.2578c0-.5469-.0603-1.0135-.181-1.3998-.1206-.3862-.2994-.701-.5364-.944s-.53-.421-.879-.5338c-.349-.1129-.7518-.1693-1.2085-.1693-.7756 0-1.4564.2083-2.0423.625-.586.4167-1.0427.9636-1.3702 1.6406V86H270V66h2.3913v7.6172Z"/>-->
<!--        </g>-->
<!--    </g>-->
</svg>