<svg xmlns="http://www.w3.org/2000/svg" viewBox="0 0 398 46">
<!--    <g fill="currentColor" fill-rule="nonzero">-->
<!--        <path d="M46 4H34.7421L23 31.633 11.2579 4H0l17.8553 41h10.35zM59 11.0685c3.2842 0 6-2.3588 6-5.504C65 2.359 62.2842 0 59 0c-3.3474 0-6 2.3589-6 5.5645 0 3.1452 2.6526 5.504 6 5.504Zm5.179 4.5968H53.9473V45h10.2315V15.6653ZM104 29.858C104 20.931 97.4447 15 88.8676 15 79.3103 15 73 21.4813 73 30.4694 73 39.5187 79.494 46 89.2352 46c7.3518 0 13.0494-3.852 14.5197-9.9665h-9.8636c-.8577 1.3452-2.4506 2.14-4.5336 2.14-3.7984 0-5.8814-2.0788-6.6779-4.7692h21.1364C104 32.2426 104 31.0197 104 29.858Zm-15.1937-7.215c3.1858 0 5.33 1.712 5.8814 4.9527H82.6186c.7352-2.996 2.8182-4.9527 6.1877-4.9527ZM128.0428 37.6233c-4.2218 0-6.6946-3.1184-6.6946-7.1539 0-4.0355 2.4728-7.0927 6.6946-7.0927 2.9553 0 5.247 1.7732 5.7296 4.4635H143C142.2763 20.1972 136.0642 15 127.9825 15 118.8152 15 112 21.4813 112 30.4694 112 39.5187 118.8152 46 127.9825 46c8.0817 0 14.2938-5.1972 15.0175-12.8402h-9.2276c-.4825 2.6903-2.7743 4.4635-5.7296 4.4635ZM184 36.0162h-20.6257V4H153v41h31zM223 15.674h-9.6716v1.5928C211.179 15.8578 208.6119 15 205.388 15 197.567 15 191 21.6166 191 30.5c0 8.8221 6.5672 15.5 14.388 15.5 3.224 0 5.7911-.8577 7.9404-2.2668v1.6542H223V15.6739Zm-15.6418 22.1778c-3.9403 0-6.8657-3.247-6.8657-7.3518 0-4.1047 2.9254-7.413 6.8657-7.413 2.0896 0 4.1194.6739 5.9702 2.7569v9.251c-1.8508 2.1442-3.8806 2.7569-5.9702 2.7569ZM270.7652 15c-4.3826 0-7.3652 1.2-10.4695 3.96-2.2522-2.58-5.4174-3.96-9.1305-3.96-3.226 0-5.2956.9-7.2435 2.58V15.9H234V45h9.9217V26.34c1.4-1.8 2.9218-2.52 4.3826-2.52 3.2261 0 5.2957 1.98 5.2957 6.12V45h9.8609V28.38c0-.72-.0609-1.44-.1218-2.16 1.4609-1.74 2.9826-2.4 4.5044-2.4 3.226 0 5.2956 1.98 5.2956 6.12V45H283V28.38C283 20.1 277.826 15 270.7652 15ZM332 4h-10.2054v22.118c0 6.2849-3.4818 10.3338-8.8246 10.3338s-8.7646-4.049-8.7646-10.3338V4H294v21.9367C294 38.6877 301.3239 46 312.97 46 324.676 46 332 38.6878 332 25.9367V4ZM353 4h-10v41h10zM398 13.1044V4h-36v9.1044h12.9767V45h10.0466V13.1044z"/>-->
<!--    </g>-->
</svg>